PathFileType	3	(X/Y/Z)	C:\Users\koon_\Desktop\
DataRate	CameraRate	NumFrames	NumMarkers	Units	OrigDataRate	OrigDataStartFrame	OrigNumFrames
100.0	100.0	11	27	mm	100.0	3362	4482	
Frame#	Time	get:LFHD			get:RFHD			get:LBHD			get:RBHD			get:C7			get:T10			get:CLAV			get:STRN			get:RBAK			get:LSHO			get:LUPA			get:LELB			get:LFRA			get:LWRA			get:LWRB			get:LFIN			get:RSHO			get:RUPA			get:RELB			get:RFRA			get:RWRA			get:RWRB			get:RFIN			get:LASI			get:RASI			get:LPSI			get:RPSI			
		X1	Y1	Z1	X2	Y2	Z2	X3	Y3	Z3	X4	Y4	Z4	X5	Y5	Z5	X6	Y6	Z6	X7	Y7	Z7	X8	Y8	Z8	X9	Y9	Z9	X10	Y10	Z10	X11	Y11	Z11	X12	Y12	Z12	X13	Y13	Z13	X14	Y14	Z14	X15	Y15	Z15	X16	Y16	Z16	X17	Y17	Z17	X18	Y18	Z18	X19	Y19	Z19	X20	Y20	Z20	X21	Y21	Z21	X22	Y22	Z22	X23	Y23	Z23	X24	Y24	Z24	X25	Y25	Z25	X26	Y26	Z26	X27	Y27	Z27	
3362	33.61	85.217789	1573.2607	-79.812157	-65.91497	1564.1224	-38.628803	48.124424	1556.6599	-198.39944	-78.213364	1558.6283	-183.35359	-42.266834	1382.408	-196.24147	-71.613411	1127.1011	-244.74356	33.526493	1285.095	-36.36068	42.995617	1099.521	-14.942422	-140.17297	1320.59	-180.97296	139.01482	1356.8525	-185.43221	210.61041	1222.913	-185.35213	244.91837	1066.1853	-141.83466	214.73863	1176.8685	-90.718079	181.11278	1243.9668	-39.815487	202.38106	1208.2573	14.544962	176.6216	1299.929	50.420242	-131.36601	1367.6538	-44.475178	-162.60625	1203.6219	89.343346	-169.31769	1103.7622	135.18623	-120.05806	1192.5259	121.03668	-19.598639	1288.2063	109.11054	15.251897	1255.9904	160.71744	32.979584	1348.9955	142.10313	129.94998	934.05652	-100.43542	-136.83826	911.12854	-16.473057	-11.742063	958.5329	-267.67416	-114.70391	947.59399	-233.05217
3363	33.62	84.097198	1573.5566	-79.496246	-67.137718	1564.1223	-38.824821	47.448601	1557.0247	-198.25314	-78.935692	1558.7601	-183.8015	-42.084297	1382.6987	-196.97104	-70.737228	1127.0867	-245.23604	32.131996	1285.4143	-36.046329	42.113152	1099.8207	-14.44032	-140.14114	1320.5776	-182.28189	138.83453	1357.394	-184.19171	211.03348	1224.033	-182.51758	245.76318	1067.6976	-137.64153	214.6245	1178.5673	-87.623459	180.06735	1245.7848	-37.465336	201.19592	1210.5325	17.340038	175.03902	1302.2101	52.425682	-132.50192	1367.6879	-45.650131	-163.68637	1202.2863	87.369598	-170.42659	1101.6774	131.39732	-121.18209	1190.6847	118.15273	-20.912228	1286.5311	107.12894	13.843534	1253.8994	158.56584	31.640881	1347.0803	140.38081	129.74272	933.99982	-99.971489	-137.397	911.22015	-17.106579	-11.262363	958.52655	-267.72809	-114.37143	947.63287	-233.55647
3364	33.63	82.985771	1573.8937	-79.21199	-68.403908	1564.0349	-39.099747	46.781532	1557.488	-198.08972	-79.583221	1558.9395	-184.19577	-42.150658	1382.3624	-197.05458	-69.880989	1127.0676	-245.76784	32.45945	1285.4404	-37.123531	41.043308	1100.0377	-14.059835	-140.04024	1320.6141	-183.73605	138.78883	1357.8767	-182.87067	211.47345	1225.1133	-179.38425	246.57152	1069.2467	-133.22058	214.4626	1180.3495	-84.338699	178.87178	1247.7401	-34.98703	199.77377	1212.9701	20.186754	173.29987	1304.6854	54.422363	-133.61839	1367.5588	-46.876144	-164.72063	1201.1744	84.917419	-171.58539	1100.0479	127.93502	-122.38227	1189.1924	115.37225	-22.357632	1285.1487	104.61968	12.243251	1252.3265	156.33397	30.018522	1345.6473	138.31836	129.53094	933.93488	-99.442078	-138.0103	911.28986	-17.877745	-10.707863	958.49072	-267.77972	-114.0586	947.65802	-234.02774
3365	33.64	81.856636	1574.2245	-78.921181	-69.628654	1563.9204	-39.504471	46.162712	1557.9451	-198.02519	-80.300232	1559.1355	-184.73372	-41.884377	1382.6273	-197.86098	-69.068169	1127.0905	-246.3562	31.331747	1285.6996	-37.00309	39.995728	1100.3247	-13.614813	-140.11649	1320.8989	-185.41289	138.69933	1358.3402	-181.64455	211.96024	1226.2064	-176.14857	247.49608	1070.925	-128.45993	214.25574	1182.2599	-80.904732	177.62273	1249.7781	-32.486073	198.1579	1215.6359	23.15307	171.38995	1307.3521	56.507294	-134.65082	1367.517	-48.189396	-165.80295	1200.4089	82.565514	-172.85489	1098.7966	124.74796	-123.63527	1188.0725	112.73151	-24.116568	1284.2089	102.50012	10.292402	1251.3705	154.19096	27.839525	1344.8429	136.45752	129.32944	933.91602	-98.924797	-138.59814	911.4325	-18.571016	-10.162807	958.51221	-267.90924	-113.65802	947.69513	-234.64897
3366	33.65	80.77739	1574.5283	-78.646591	-70.885109	1563.7783	-39.926105	45.582191	1558.402	-197.96222	-80.904381	1559.2778	-185.14865	-41.723427	1382.3873	-198.26559	-68.224678	1127.0535	-246.90778	30.226059	1285.9166	-36.894932	38.959442	1100.5648	-13.286718	-139.789	1320.5352	-186.59004	138.68947	1358.7815	-180.3177	212.38525	1227.2736	-172.79637	248.33411	1072.6337	-123.46719	213.94443	1184.2701	-77.410904	176.18703	1251.8978	-29.979637	196.34566	1218.3768	26.203173	169.20825	1310.1476	58.56189	-135.68466	1367.48	-49.507221	-166.9102	1199.7803	80.264671	-174.08243	1097.8361	121.87161	-125.13439	1187.3052	110.33458	-26.125771	1283.7832	100.45595	8.1264715	1251.0104	152.26823	25.440165	1344.5902	134.63007	129.15358	933.87994	-98.32827	-139.23785	911.5141	-19.411427	-9.5361767	958.51233	-267.95734	-113.1992	947.74738	-235.37988
3367	33.66	79.665009	1574.717	-78.360016	-72.105118	1563.6176	-40.353027	45.057587	1558.7987	-197.91983	-81.53717	1559.4148	-185.75725	-41.499405	1382.34	-198.96365	-67.356216	1126.9386	-247.43304	29.078922	1286.0941	-36.860306	37.730797	1100.937	-13.22916	-139.96045	1320.7461	-188.52852	138.73283	1359.2449	-178.94339	212.85991	1228.3595	-169.32005	249.08607	1074.3822	-118.20454	213.92833	1186.4027	-73.746033	174.76271	1254.1146	-27.383303	194.34546	1221.1921	29.289427	166.89227	1312.9697	60.577923	-136.74648	1367.4745	-50.942356	-168.19685	1199.3904	78.289421	-175.30241	1097.1344	119.18901	-126.81963	1186.8662	107.95498	-28.250385	1283.8036	98.427505	5.8004813	1251.2368	150.57851	22.911621	1344.9121	132.80855	128.95314	933.84412	-97.720184	-139.86975	911.64105	-20.221905	-8.848485	958.51764	-268.01535	-112.83356	947.76404	-236.04723
3368	33.67	78.623901	1574.8795	-78.150223	-73.360413	1563.4657	-40.914909	44.581974	1559.1315	-197.86595	-82.091415	1559.4996	-186.25131	-41.218529	1382.2444	-199.58907	-66.463043	1126.8923	-248.0963	27.753296	1286.2434	-36.735199	36.508831	1101.2389	-13.24911	-139.42621	1320.2426	-189.53886	138.75323	1359.6464	-177.49336	213.32185	1229.4349	-165.75882	249.71292	1076.1499	-112.74852	213.05969	1188.2726	-69.973396	173.21013	1256.3805	-24.818531	192.23216	1224.0464	32.436344	164.35675	1315.9497	62.563457	-137.83264	1367.5774	-52.498672	-169.56213	1199.1017	76.199074	-176.61185	1096.6733	116.74161	-128.62532	1186.7483	105.71141	-30.624603	1284.1864	96.588577	3.3706522	1251.8749	148.87279	20.2465	1345.6891	131.1104	128.75984	933.81219	-97.006851	-140.56596	911.70721	-21.187622	-8.1510086	958.49298	-268.08289	-112.40038	947.74988	-236.72943
3369	33.68	77.554535	1574.9962	-77.966782	-74.616623	1563.3365	-41.525787	44.148827	1559.4041	-197.84372	-82.57502	1559.6333	-186.92696	-40.84745	1382.1099	-200.33501	-65.492279	1126.7808	-248.72771	26.38295	1286.3744	-36.779064	35.242001	1101.3654	-13.090948	-139.20482	1320.0625	-191.17387	138.77863	1359.9728	-176.05754	213.72397	1230.5049	-162.2213	250.26915	1077.9186	-107.1296	211.55879	1190.0526	-66.082237	171.65248	1258.5804	-22.147675	189.90915	1226.9741	35.687805	161.62605	1318.9377	64.48365	-138.89096	1367.7401	-54.162838	-171.08063	1199.0396	74.301361	-177.94191	1096.522	114.49348	-130.57382	1186.9063	103.56129	-33.064991	1285.0077	94.963768	0.81983024	1252.9213	147.41437	17.378815	1346.7482	129.48936	128.55501	933.76538	-96.248634	-141.32022	911.77222	-22.162601	-7.4041762	958.46075	-268.1181	-111.8302	947.7337	-237.44104
3370	33.69	76.525764	1575.1251	-77.798386	-75.801903	1563.2865	-42.126991	43.741261	1559.6781	-197.8627	-83.077324	1559.786	-187.69989	-40.452698	1382.0353	-201.16986	-64.489807	1126.7821	-249.54829	25.056381	1286.4757	-36.751747	33.999565	1101.5183	-12.84189	-138.84833	1319.8274	-192.85484	138.78224	1360.2239	-174.49045	214.1111	1231.5046	-158.45367	250.70012	1079.6527	-101.46012	212.27052	1192.5107	-62.222649	169.978	1260.764	-19.536963	187.55742	1229.8625	38.845371	158.65866	1321.97	66.423843	-139.92134	1368.0753	-56.05619	-172.67851	1199.041	72.26992	-179.33064	1096.4795	112.29884	-132.5106	1187.2177	101.52634	-35.671478	1285.9901	93.524689	-1.8986318	1254.2039	146.13762	14.259639	1348.1012	128.23157	128.29221	933.7392	-95.415375	-142.058	911.85901	-23.110828	-6.572072	958.37787	-268.18912	-111.21162	947.72015	-238.23695
3371	33.7	75.521706	1575.2368	-77.643517	-76.972694	1563.2981	-42.781132	43.404564	1559.9274	-197.88498	-83.471138	1559.9446	-188.36346	-39.99712	1381.9772	-202.02817	-63.361591	1126.6399	-250.26125	23.68647	1286.6082	-36.795536	32.628738	1101.606	-12.597329	-138.42487	1319.7861	-194.82722	138.76299	1360.467	-172.98073	214.32187	1232.283	-154.76385	251.02261	1081.3237	-95.788864	210.76488	1194.141	-58.228626	168.26682	1262.9949	-16.878801	185.07976	1232.6698	42.022228	155.52583	1324.9181	68.221886	-141.10101	1368.2966	-58.028973	-174.37912	1199.2476	70.201988	-180.86931	1096.722	110.26158	-134.57668	1187.6632	99.382011	-38.33234	1287.2094	92.174461	-4.6819401	1255.6328	144.98534	11.023773	1349.5502	126.98444	128.03169	933.68268	-94.624725	-142.85497	911.89581	-24.161833	-5.6508565	958.25146	-268.18149	-110.47142	947.76477	-239.20267
3372	33.71	74.556671	1575.3508	-77.52124	-78.122818	1563.2886	-43.463387	43.084705	1560.1814	-197.94708	-83.842003	1560.129	-189.04216	-39.487312	1381.8999	-202.85072	-62.214153	1126.5139	-250.96411	22.274824	1286.7689	-36.851322	31.248592	1101.7672	-12.231097	-138.02287	1319.6567	-196.78436	138.77048	1360.6642	-171.39656	214.50871	1233.302	-150.95888	251.2635	1083.0631	-90.096504	209.10733	1195.8191	-54.264694	166.40617	1265.0786	-14.248437	182.57567	1235.4998	45.300045	152.26186	1327.8767	70.083572	-142.1459	1368.4504	-60.146828	-176.11356	1199.6196	68.016556	-182.63403	1097.1427	108.41754	-136.69179	1188.2462	97.548538	-41.129955	1288.7645	91.612839	-7.6208386	1257.2057	143.91217	7.622508	1351.0756	125.85756	127.74272	933.64325	-93.702148	-143.73216	911.987	-25.215479	-4.6658497	958.17181	-268.31879	-109.72886	947.64203	-239.97787
